<?xml version="1.0" encoding="UTF-8" standalone="no"?>
<!-- Created with Inkscape (http://www.inkscape.org/) -->

<svg
   xmlns:dc="http://purl.org/dc/elements/1.1/"
   xmlns:cc="http://creativecommons.org/ns#"
   xmlns:rdf="http://www.w3.org/1999/02/22-rdf-syntax-ns#"
   xmlns:svg="http://www.w3.org/2000/svg"
   xmlns="http://www.w3.org/2000/svg"
   xmlns:sodipodi="http://sodipodi.sourceforge.net/DTD/sodipodi-0.dtd"
   xmlns:inkscape="http://www.inkscape.org/namespaces/inkscape"
   width="1653.0029"
   height="340.00784"
   id="svg2"
   version="1.1"
   inkscape:version="0.47 r22583"
   sodipodi:docname="New document 1">
  <defs
     id="defs4">
    <inkscape:perspective
       sodipodi:type="inkscape:persp3d"
       inkscape:vp_x="0 : 526.18109 : 1"
       inkscape:vp_y="0 : 1000 : 0"
       inkscape:vp_z="744.09448 : 526.18109 : 1"
       inkscape:persp3d-origin="372.04724 : 350.78739 : 1"
       id="perspective10" />
    <inkscape:perspective
       id="perspective2824"
       inkscape:persp3d-origin="0.5 : 0.33333333 : 1"
       inkscape:vp_z="1 : 0.5 : 1"
       inkscape:vp_y="0 : 1000 : 0"
       inkscape:vp_x="0 : 0.5 : 1"
       sodipodi:type="inkscape:persp3d" />
  </defs>
  <sodipodi:namedview
     id="base"
     pagecolor="#ffffff"
     bordercolor="#666666"
     borderopacity="1.0"
     inkscape:pageopacity="0.0"
     inkscape:pageshadow="2"
     inkscape:zoom="0.24748737"
     inkscape:cx="701.14431"
     inkscape:cy="169.15423"
     inkscape:document-units="px"
     inkscape:current-layer="layer1"
     showgrid="false"
     inkscape:window-width="1280"
     inkscape:window-height="725"
     inkscape:window-x="0"
     inkscape:window-y="24"
     inkscape:window-maximized="1" />
  <metadata
     id="metadata7">
    <rdf:RDF>
      <cc:Work
         rdf:about="">
        <dc:format>image/svg+xml</dc:format>
        <dc:type
           rdf:resource="http://purl.org/dc/dcmitype/StillImage" />
        <dc:title></dc:title>
      </cc:Work>
    </rdf:RDF>
  </metadata>
  <g
     inkscape:label="Layer 1"
     inkscape:groupmode="layer"
     id="layer1"
     transform="translate(477.92861,-315.49721)">
    <path
       style="fill:#000000"
       d="m -477.92861,587.00505 c 0,-37.675 0.2474,-68.5 0.5497,-68.5 0.3023,0 1.8144,0.65403 3.3602,1.45341 2.5119,1.29893 3.7554,1.23832 11.7004,-0.57028 4.8894,-1.11302 10.9735,-2.46987 13.5204,-3.01522 4.4855,-0.96048 31.8067,-2.31066 36.8693,-1.82204 6.7279,0.64933 12.8527,0.13089 16.2011,-1.37133 l 3.701,-1.66047 -0.6062,-12.25703 c -0.4246,-8.58599 -1.0755,-12.97992 -2.1732,-14.67061 -0.8619,-1.32746 -1.8045,-4.42361 -2.0948,-6.88033 -0.5241,-4.43473 -0.5709,-4.48197 -6.5279,-6.58867 l -6,-2.12191 -0.2837,-11.35463 c -0.1752,-7.01252 0.1252,-11.84737 0.7856,-12.64315 0.5882,-0.70869 2.6284,-1.58099 4.5338,-1.93845 l 3.4643,-0.64992 0.01,-6.20468 c 0.01,-5.6362 0.4141,-6.83645 4.4521,-13.09995 5.6526,-8.76774 9.3369,-12.60474 12.1033,-12.60474 1.2034,0 3.5942,-0.28125 5.3129,-0.625 2.8368,-0.56735 3.125,-0.97269 3.125,-4.39424 0,-2.81283 0.7659,-4.58915 3.0185,-7.00047 2.806,-3.00391 3.3763,-3.19682 8.1065,-2.7423 2.7985,0.2689 5.4628,1.09496 5.9206,1.8357 1.1831,1.91436 4.9544,-1.62984 4.9544,-4.6561 0,-2.7655 4.3698,-6.41759 7.6787,-6.41759 1.5234,0 2.301,-0.50727 2.1152,-1.37975 -0.1616,-0.75886 2.169,-3.23386 5.1792,-5.5 4.3834,-3.29989 6.307,-4.12025 9.6611,-4.12025 3.459,0 4.5952,0.5194 6.527,2.98354 7.7192,9.84687 7.9649,10.37039 5.3388,11.37809 -2.5495,0.97833 -1.6709,2.27058 2.3661,3.48008 5.7304,1.71688 6.4958,1.4987 8.6273,-2.45918 1.0714,-1.98961 3.419,-4.73936 5.2167,-6.11057 l 3.2687,-2.49311 -1.8436,-2.63942 c -1.0139,-1.45169 -2.1475,-3.8962 -2.5191,-5.43225 -0.3716,-1.53605 -1.4497,-3.07823 -2.3959,-3.42706 -1.9003,-0.70066 -3.1813,-2.226 -3.2048,-3.81612 -0.033,-2.2146 8.2981,-7.464 11.8454,-7.464 3.8299,0 10.1392,1.96061 10.1392,3.15076 0,0.41194 1.4216,2.85531 3.159,5.42971 2.5605,3.79387 2.9479,5.01876 2.0448,6.46485 -0.8316,1.33158 -0.8085,2.02635 0.091,2.73908 1.1344,0.89885 7.3998,3.16193 10.0149,3.61741 7.2164,1.25691 27.66514,20.0746 27.68522,25.47699 0.003,0.75834 1.58012,3.12214 3.50512,5.25288 3.91721,4.33589 4.11357,5.51172 2.05992,12.33549 -1.36758,4.54411 -1.31151,5.11854 1.11363,11.40893 1.40455,3.64315 2.9029,7.32573 3.32967,8.18352 0.42676,0.85779 1.32714,4.21474 2.00083,7.45989 0.67369,3.24514 1.87462,6.89188 2.66874,8.10386 0.89813,1.37072 1.32732,4.03164 1.13553,7.04012 l -0.30831,4.83651 -4.5,-0.2461 c -14.32328,-0.78332 -19.17493,-2.02207 -24.50285,-6.2562 -2.0747,-1.64873 -4.5701,-2.9977 -5.5455,-2.9977 -2.6676,0 -6.2835,8.14147 -5.6775,12.78362 0.2668,2.04401 0.052,9.05189 -0.4761,15.57306 -0.5287,6.52117 -0.691,12.93367 -0.3606,14.25 0.6111,2.43511 3.0965,3.29151 3.7616,1.29618 0.2636,-0.79086 1.4762,-0.79812 4.3435,-0.026 5.0167,1.35085 37.45745,1.33394 37.45745,-0.0195 0,-0.53643 0.45,-0.69722 1,-0.3573 0.55,0.33992 1,0.17723 1,-0.36153 0,-0.53876 1.44472,-1.29687 3.21049,-1.6847 1.76578,-0.38783 4.51299,-1.66109 6.10493,-2.82946 2.8146,-2.06572 2.87657,-2.30072 2.24674,-8.51997 -0.35624,-3.51762 -1.11922,-7.2767 -1.69552,-8.35352 -0.57629,-1.07682 -1.43055,-4.66564 -1.89835,-7.97516 -0.58081,-4.10905 -1.53841,-6.65816 -3.01962,-8.0381 -3.73862,-3.48312 -4.94867,-8.01435 -4.94867,-18.53119 0,-8.93797 -0.20995,-10.05251 -2.25,-11.94445 -1.2375,-1.14766 -3.35859,-2.2386 -4.71354,-2.42432 -2.44653,-0.33533 -2.46144,-0.40326 -2.159,-9.83749 0.17836,-5.56386 0.95562,-11.15719 1.876,-13.5 2.0177,-5.13607 1.85385,-12.58293 -0.3117,-14.16641 -2.17672,-1.59166 -3.597,-8.11233 -2.24018,-10.28493 0.57823,-0.9259 2.53578,-2.70061 4.3501,-3.94381 2.41735,-1.6564 3.47082,-3.27873 3.9427,-6.07173 0.5897,-3.49042 0.30124,-4.16099 -3.42523,-7.96274 -2.23803,-2.28324 -4.06915,-5.03317 -4.06915,-6.11095 0,-1.07778 -0.6199,-1.9596 -1.37756,-1.9596 -0.75765,0 -1.89945,-0.62885 -2.53732,-1.39744 -0.90755,-1.09352 -0.55493,-2.3988 1.62132,-6.00173 3.18225,-5.26844 7.24903,-7.60083 13.2529,-7.60083 3.56541,0 4.82486,0.6406 8.84887,4.50084 l 4.69179,4.50084 -2.29878,1.79026 c -2.17087,1.69064 -2.2826,5.20806 -0.16543,5.20806 0.45199,0 2.43926,1.52545 4.41614,3.3899 3.20727,3.02484 8.72889,5.09595 10.05376,3.77108 0.27187,-0.27187 0.49431,-3.0533 0.49431,-6.18095 0,-3.12766 0.28911,-8.45266 0.64246,-11.83334 0.58626,-5.60908 0.84865,-6.14669 3,-6.14669 1.29665,0 2.3811,0.5625 2.4099,1.25 0.0288,0.6875 0.007,6.93566 -0.0478,13.88481 l -0.10017,12.63481 5.13026,3.15668 c 6.50049,3.99979 10.96535,5.0506 10.96535,2.58072 0,-0.95865 1.38228,-3.31732 3.07173,-5.2415 1.68945,-1.92418 3.7983,-5.02214 4.68633,-6.88435 1.54157,-3.23271 1.51571,-3.5196 -0.57173,-6.34302 -1.20248,-1.62644 -2.18633,-3.65039 -2.18633,-4.49766 0,-1.03812 -0.95908,-1.54049 -2.94098,-1.54049 -3.84835,0 -4.73147,-1.62176 -2.35463,-4.32403 1.05266,-1.19678 2.43029,-3.39182 3.06141,-4.87787 2.59491,-6.11002 13.81943,-7.50673 18.6282,-2.31797 1.18316,1.27664 3.26602,2.47838 4.6286,2.67052 2.13891,0.30162 2.70054,-0.2655 4.11055,-4.15065 3.42364,-9.43352 3.74312,-9.98471 5.41541,-9.34299 1.11111,0.42637 1.4079,1.27561 0.9544,2.7309 -0.36199,1.16165 -1.0395,3.68709 -1.50557,5.61209 -0.46606,1.925 -1.54011,6.2 -2.38677,9.5 -2.18908,8.53235 -2.0543,10.38082 0.8371,11.48012 1.34625,0.51185 4.15875,2.4539 6.25,4.31568 2.663,2.37078 5.45025,3.70933 9.30228,4.4673 11.25856,2.21539 13.60337,4.2526 10.64976,9.25266 -0.90737,1.53605 -1.64976,3.78089 -1.64976,4.98853 0,2.22101 -5.26229,8.26672 -7.97222,9.15907 -1.26472,0.41646 -1.2024,1.27858 0.44218,6.11685 1.72282,5.06848 1.78622,6.2769 0.63355,12.07599 -0.95317,4.79539 -0.99615,6.97589 -0.16798,8.52334 1.37831,2.5754 0.66088,6.07709 -2.64128,12.8918 -2.97728,6.14426 -3.32386,6.42866 -7.83401,6.42866 -3.72737,0 -3.3119,-0.91936 -5.10666,11.3 -0.93675,6.37774 -0.58926,11.82227 1.11694,17.5 0.74375,2.475 1.6212,7.08852 1.94988,10.25226 0.32868,3.16374 1.21867,7.43874 1.97775,9.5 0.75909,2.06126 1.96206,6.37756 2.67328,9.59179 1.55774,7.03996 2.38543,7.48375 13.46958,7.22212 8.49772,-0.20058 10.45899,-0.78662 10.45899,-3.12519 0,-2.57846 5.606216,-1.75255 7.710296,1.13588 l 1.87711,2.57686 17.34038,-0.0458 c 15.69587,-0.0414 17.46302,-0.22089 18.63369,-1.89225 0.71132,-1.01555 3.02653,-2.62804 5.14492,-3.58329 6.58186,-2.96801 8.95193,-11.59285 5.2323,-19.04068 -2.28022,-4.5657 -3.9387,-5.89591 -3.9387,-3.15909 0,0.78794 -1.0125,1.77548 -2.25,2.19453 -3.27431,1.10878 -20.90122,0.49224 -22.44007,-0.78489 -0.96895,-0.80415 -1.30993,-4.83614 -1.30993,-15.48945 0,-14.30621 -0.0161,-14.40843 -2.41443,-15.32027 -3.01256,-1.14537 -3.50167,-2.76121 -3.49447,-11.54452 0.003,-4.13963 -0.64116,-8.56025 -1.57348,-10.7916 -1.52334,-3.64587 -1.47135,-4.09378 1.46928,-12.65825 4.90349,-14.28123 5.74806,-15.84576 10.00434,-18.53263 2.18296,-1.37804 4.3554,-2.50553 4.82765,-2.50553 0.47225,0 1.32852,-3.7125 1.90282,-8.25 0.5743,-4.5375 1.38042,-9.28577 1.79139,-10.55172 0.68054,-2.09635 0.51254,-2.24282 -1.88294,-1.64159 -2.184,0.54815 -2.63016,0.32062 -2.63016,-1.34129 0,-1.10078 0.675,-2.26044 1.5,-2.57703 1.71742,-0.65903 2.03402,-5.19029 0.43183,-6.1805 -0.5875,-0.3631 -0.75394,-1.40215 -0.36987,-2.30902 0.95214,-2.24823 0.55938,-8.42751 -0.60999,-9.59688 -1.82544,-1.82544 -0.91984,-3.09499 3.79803,-5.32446 5.78817,-2.73524 7.26637,-2.76997 12.13708,-0.28512 4.25177,2.1691 7.11292,5.86595 7.11292,9.19051 0,4.39099 2.22856,14.8671 3.16265,14.8671 0.52653,0 3.02005,1.575 5.54114,3.5 2.5211,1.925 5.71378,3.5 7.09485,3.5 3.56041,0 10.20136,7.14985 10.20136,10.98309 0,1.59438 -0.45,3.17699 -1,3.51691 -1.8799,1.16184 -1.00034,2.18332 2.88137,3.34631 6.07702,1.82072 8.1898097,6.15369 3.0006,6.15369 -1.1,0 -1.72189,0.45 -1.38197,1 0.33992,0.55 1.34354,1 2.23028,1 0.88673,0 2.47582,0.78153 3.5313,1.73672 1.8220897,1.64897 1.9832297,1.64897 3.1889797,0 0.69846,-0.95519 2.0293,-1.73672 2.95743,-1.73672 0.92813,0 2.81775,-1.21956 4.19917001,-2.71012 1.98725999,-2.1443 3.33437999,-2.67732 6.45224999,-2.55299 2.16732,0.0864 3.9405903,-0.25336 3.9405903,-0.75508 0,-0.50172 1.35,-2.44978 3,-4.32903 2.08176,-2.37099 3,-4.46299 3,-6.83479 0,-1.8799 0.5625,-3.98601 1.25,-4.68027 1.00116,-1.01099 0.90548,-1.45669 -0.48061,-2.23883 -0.95183,-0.53711 -2.90709,-2.98409 -4.34502,-5.43773 -1.66758,-2.84551 -3.3156803,-4.46116 -4.5507803,-4.46116 -3.07522,0 -3.26722,-2.61737 -0.4618,-6.29546 1.42351,-1.86633 2.5882103,-3.8827 2.5882103,-4.48084 0,-2.3327 5.78193,-5.2237 10.44728,-5.2237 3.89921,0 5.52571,0.66982 10.20468,4.20248 l 5.56615,4.20249 -2.26139,1.83116 c -3.21872,2.60636 -3.93857,11.16803 -1.06816,12.70423 2.5579,1.36895 6.80664,1.36184 7.65621,-0.0128 0.36455,-0.58984 0.8021,-8.95083 0.97233,-18.57998 0.17024,-9.62914 0.59905,-17.79705 0.95291,-18.15092 0.35386,-0.35386 1.85537,0.0365 3.33669,0.86746 l 2.6933,1.51085 0.27092,20.27933 c 0.26765,20.03477 0.29653,20.2755 2.39462,19.96251 1.60019,-0.23871 2.41353,-1.4634 3.29945,-4.96818 1.435,-5.67701 4.0959,-9.92103 6.63686,-10.58551 2.34209,-0.61247 2.34262,-0.57534 -0.10185,-7.26311 -5.3423,-14.61592 1.02899,-25.35734 12.25785,-20.66562 5.66815,2.3683 8.63613,9.56631 6.06756,14.71515 -1.37551,2.75727 -1.37392,3.23938 0.0157,4.77495 1.53636,1.69766 11.76538,7.22345 16.78401,9.06684 1.87344,0.68813 2.80564,1.91558 3.25541,4.28647 0.34663,1.82721 1.260404,4.5294 2.030594,6.00485 0.77019,1.47545 1.69668,4.03186 2.05887,5.6809 0.36219,1.64905 1.3046,3.53446 2.09425,4.18981 0.78965,0.65535 1.43572,2.25056 1.43572,3.54493 0,1.29436 0.87668,3.79496 1.94817,5.5569 1.0715,1.76193 1.67775,3.64107 1.34723,4.17587 -0.33052,0.5348 0.0303,1.47016 0.80182,2.07859 3.11775,2.45866 5.82053,9.93855 5.27207,14.59036 -0.42564,3.61013 -0.0108,5.46762 2.09808,9.3932 2.78208,5.17883 2.7708,9.33432 -0.0317,11.66015 -0.78965,0.65535 -1.43572,2.5136 -1.43572,4.12946 0,2.78344 -0.19718,2.9216 -3.75,2.62756 l -3.74991,-0.31037 -0.21597,-5 c -0.47801,-11.06637 -1.5775,-18.49867 -2.89879,-19.59525 -1.11667,-0.92674 -1.38524,-0.67124 -1.38524,1.31782 0,2.52834 -2.72383,5.77743 -4.84344,5.77743 -2.170324,0 -5.190984,6.26491 -4.585504,9.51041 0.80688,4.32499 -1.10763,8.84404 -3.48357,8.22272 -2.39039,-0.6251 -4.0829,2.88055 -4.81932,9.98213 -0.47123,4.54433 -0.0866,6.15242 2.98982,12.5 1.94184,4.00661 3.81361,9.60899 4.15948,12.44974 0.34588,2.84075 1.5693,7.79075 2.71873,11 2.923684,8.16304 3.440904,13.61116 1.44912,15.26419 -0.87192,0.72363 -1.58532,2.1903 -1.58532,3.25925 0,1.76022 0.54241,1.89408 5.750004,1.41904 11.15346,-1.01742 15.78283,-1.79968 18.89338,-3.19255 1.88877,-0.84578 4.40723,-1.15481 6.30991,-0.77427 2.53452,0.5069 3.46526,0.20679 4.66332,-1.50368 1.257,-1.79462 2.49702,-2.13698 7.74009,-2.13698 3.5117,0 6.76669,0.52339 7.43955,1.19625 0.92834,0.92834 1.47705,0.84274 2.45,-0.38222 0.7658,-0.96415 3.51848,-1.79357 7.07282,-2.13113 3.20048,-0.30396 6.35048,-0.99054 7,-1.52574 0.64951,-0.5352 3.65593,-1.66962 6.68093,-2.52095 3.025,-0.85133 7.4317,-2.11583 9.79266,-2.81001 4.77051,-1.40266 7.03532,-0.6359 8.66318,2.93292 1.09877,2.40889 7.19014,3.9949 8.87441,2.31063 0.58836,-0.58836 1.92853,-1.06975 2.97816,-1.06975 2.15908,0 2.07121,-0.83392 -1.26455,-12 -1.068,-3.575 -2.47081,-8.36405 -3.11736,-10.64233 -0.79681,-2.80774 -2.52362,-5.26917 -5.35974,-7.63988 -4.93982,-4.12917 -5.97482,-7.07399 -7.63307,-21.71779 -1.48685,-13.13024 -2.22498,-15.2398 -5.1853,-14.81934 -1.73232,0.24604 -2.3213,1.07848 -2.56602,3.62668 -0.36874,3.83946 -2.2779,4.92579 -5.82025,3.31179 -2.496,-1.13725 -2.50637,-1.19655 -1.81597,-10.38146 0.3819,-5.08072 1.48606,-13.06267 2.45368,-17.73767 0.99025,-4.78436 1.66781,-11.88196 1.54999,-16.23665 -0.18196,-6.72552 0.0298,-7.81255 1.62043,-8.31739 1.53961,-0.48865 1.82975,-1.67255 1.82975,-7.46629 0,-6.63338 1.41047,-11.97967 3.16052,-11.97967 1.45267,0 0.91062,-2.75872 -0.66052,-3.36163 -0.84462,-0.32411 -1.5,-1.81269 -1.5,-3.40699 0,-1.55726 -0.54518,-3.37656 -1.21151,-4.04289 -0.6682,-0.6682 -1.07976,-3.03622 -0.91773,-5.28035 0.19994,-2.76913 -0.25513,-4.67538 -1.42461,-5.96764 -1.62874,-1.79974 -1.61999,-1.93518 0.16773,-2.59603 1.03737,-0.38348 3.2786,-1.74286 4.98051,-3.02085 7.07316,-5.31133 19.2908,-0.0347 19.37401,8.36736 0.0174,1.75504 0.4816,3.4691 1.0316,3.80902 1.7596,1.08749 1.07031,3.5 -1,3.5 -1.1,0 -2,0.38026 -2,0.84501 0,1.11994 3.03818,3.68663 5.32881,4.50185 1.00585,0.35797 4.31822,2.30323 7.36082,4.32279 5.82971,3.86954 6.34098,3.94214 30.33297,4.30718 0.83742,0.0127 2.32973,1.52193 3.31623,3.35375 0.98649,1.83181 4.35133,6.05185 7.4774,9.37785 3.12607,3.32601 7.44216,8.57725 9.5913,11.66943 2.14914,3.09218 4.51825,5.62214 5.2647,5.62214 1.22078,0 5.3148,-5.51392 5.32403,-7.17054 0.002,-0.3688 -1.27735,-0.95192 -2.84313,-1.29583 l -2.84688,-0.62528 0.38117,-7.70417 c 0.66762,-13.49419 2.20828,-19.13572 6.49625,-23.78761 2.96379,-3.21534 3.81633,-4.95297 3.81633,-7.7784 0,-2.92205 -0.37825,-3.63817 -1.92164,-3.63817 -1.18606,0 -3.0043,-1.70857 -4.75,-4.46349 -1.83566,-2.89689 -3.55689,-4.4763 -4.90405,-4.5 -2.16495,-0.0381 -6.42431,-3.8599 -6.42431,-5.76437 0,-0.60442 2.1375,-3.15793 4.75,-5.67446 8.24996,-7.9469 15.60251,-7.38072 23.53948,1.81263 5.17052,5.989 5.44387,6.73617 3.15836,8.63298 -1.3608,1.12936 -0.93936,1.91501 3.41833,6.37245 8.39192,8.58401 9.54106,11.81926 9.97528,28.08426 0.35717,13.37898 0.52002,14.31051 3.67114,21 1.81357,3.85 4.72255,11.26712 6.46441,16.48249 3.09009,9.25219 3.12083,9.51987 1.26557,11.02217 -1.04579,0.84683 -2.20854,3.07519 -2.58388,4.9519 -0.37534,1.87671 -1.42296,4.23047 -2.32803,5.23056 -1.4025,1.54975 -1.47141,2.39974 -0.46645,5.75398 1.3072,4.36304 0.76831,10.2049 -1.58012,17.12938 -1.51552,4.4686 -1.49271,4.65807 1.02337,8.5 2.56921,3.92307 5.43011,14.42034 7.69733,28.24312 1.4076,8.58189 2.45506,9.35593 10.99521,8.12509 11.46593,-1.65252 23.69332,-0.67802 27.55375,2.19596 1.69565,1.26237 26.93113,1.2114 29.30526,-0.0592 1.15233,-0.61671 2.51813,-1.91163 3.0351,-2.8776 0.99249,-1.85448 0.0899,-10.68705 -1.80846,-17.69786 -0.59571,-2.2 -1.31827,-6.57663 -1.60567,-9.72584 -0.38436,-4.21153 -1.14245,-6.34572 -2.86648,-8.06975 -3.42725,-3.42726 -3.45452,-12.2537 -0.0669,-21.64506 2.26142,-6.26919 2.40085,-7.39178 1.21953,-9.81891 -1.13859,-2.33933 -1.92568,-2.72967 -5.37759,-2.66687 -3.60255,0.0655 -3.99938,-0.15863 -3.63695,-2.0546 0.22376,-1.1705 0.0213,-3.6159 -0.44985,-5.43422 -0.78556,-3.03155 -1.2057,-3.32298 -5.06003,-3.5099 -3.65626,-0.17732 -4.56303,0.22754 -6.96694,3.11065 -3.5361,4.241 -5.02053,4.18678 -5.84604,-0.21356 -0.5417,-2.88748 -0.14294,-4.29463 2.1962,-7.75 1.57194,-2.32207 4.36377,-5.76882 6.20407,-7.65945 2.9172,-2.99699 3.26657,-3.89406 2.72622,-7 -1.30488,-7.5004 -2.79154,-19.74881 -2.92061,-24.06249 -0.13318,-4.45111 -0.0965,-4.50321 3.37217,-4.79587 3.13764,-0.26472 3.71356,-0.79107 5.47082,-5 1.11238,-2.66432 1.97667,-7.06431 1.99319,-10.1471 0.0259,-4.83951 -0.22239,-5.50472 -2.23985,-6 -2.48841,-0.61088 -6.21395,-5.55991 -6.22438,-8.26849 -0.004,-1.14823 -1.32289,-2.06589 -4.00656,-2.78853 -2.31949,-0.62457 -4,-1.68293 -4,-2.51913 0,-2.10883 6.60979,-12.09415 9.21246,-13.91713 3.45913,-2.42287 9.90889,-1.99139 13.88966,0.92919 1.86883,1.37112 4.86038,3.44057 6.64788,4.59878 3.89871,2.52617 4.10042,4.1152 0.75,5.90829 -1.47323,0.78845 -2.5,2.21849 -2.5,3.48189 0,2.26677 3.82165,6.26722 8,8.37427 8.62022,4.34701 13.79336,14.85939 15.57193,31.64384 0.34968,3.3 1.26405,7.30664 2.03193,8.90364 0.76788,1.597 1.39614,4.7695 1.39614,7.05 0,2.2805 0.47936,4.62572 1.06524,5.2116 1.46231,1.46231 3.0503,19.25035 1.90893,21.38303 -1.01124,1.88952 -0.36037,2.95173 1.80866,2.95173 2.0416,0 15.21717,11.88397 15.21717,13.72543 0,1.23725 -0.2786,1.28824 -1.5,0.27457 -1.19672,-0.99319 -1.80328,-0.99319 -3,0 -0.825,0.68469 -1.5,1.78635 -1.5,2.44813 0,1.96938 -4.63033,5.71593 -6.63839,5.37134 -2.28919,-0.39285 -2.07677,2.4886 0.67678,9.18053 1.0184,2.475 2.33447,9.225 2.9246,15 0.59014,5.775 1.46967,12.975 1.95453,16 1.1283,7.03943 0.32636,8 -6.67885,8 l -5.51645,0 0.54731,6.03575 c 0.81177,8.95243 2.27565,10.60805 9.922,11.22164 5.39358,0.43281 6.9208,0.15705 10.53065,-1.90143 3.64133,-2.07644 4.5263,-2.23214 6.43288,-1.13181 4.44548,2.56558 7.84494,6.15979 7.84494,8.29436 0,2.02712 0.3858,2.15642 5.25,1.75941 7.12095,-0.58121 7.67837,-0.83581 7.05435,-3.22207 -0.71534,-2.73546 1.11073,-4.77447 5.01475,-5.59953 5.58036,-1.17934 7.6809,-4.02696 7.6809,-10.41271 0,-3.08426 -0.69198,-8.06832 -1.53774,-11.07568 -0.84576,-3.00736 -1.79579,-7.30504 -2.11117,-9.55039 -0.47424,-3.37634 -1.18013,-4.4092 -4.08107,-5.97146 -3.47979,-1.87399 -3.50365,-1.93298 -3.0052,-7.42992 0.27634,-3.04752 1.4548,-7.23655 2.61881,-9.30897 2.83653,-5.05021 2.68984,-9.58305 -0.46037,-14.22514 -2.03699,-3.00167 -2.5083,-4.75795 -2.25,-8.38438 l 0.32674,-4.58735 -3.47038,-0.005 c -3.93537,-0.006 -8.25771,3.10145 -10.59122,7.61396 -1.73883,3.36254 -4.96004,3.81814 -5.74598,0.8127 -0.81395,-3.11256 1.04614,-7.36241 4.26353,-9.74113 1.57796,-1.16664 3.92048,-4.2743 5.20561,-6.90592 1.28512,-2.63163 2.787,-5.10687 3.33751,-5.50055 0.59744,-0.42723 1.00093,-7.26322 1.00093,-16.95793 l 0,-16.24217 3.74612,-1.54206 c 3.04809,-1.25472 3.86732,-2.19424 4.39654,-5.04206 0.35773,-1.925 1.48448,-5.06834 2.50388,-6.98519 2.4518,-4.6103 2.41532,-4.75321 -1.64654,-6.45036 -2.33923,-0.9774 -3.5,-2.12304 -3.5,-3.45441 0,-1.0956 -0.45,-2.27012 -1,-2.61004 -0.55,-0.33992 -1.00458,-1.37898 -1.01017,-2.30902 -0.006,-1.02061 -1.5919,-2.35531 -4,-3.36672 -2.19441,-0.92165 -3.97891,-2.27165 -3.96557,-3 0.0133,-0.72834 2.4145,-3.99613 5.33589,-7.26176 l 5.31162,-5.9375 6.61924,0 6.61924,0 5.79487,5.4375 c 3.18719,2.99047 5.79488,6.11234 5.79488,6.93734 0,0.825 -1.4625,2.14371 -3.25,2.93047 -3.50066,1.54079 -4.54005,5.36051 -1.75,6.43116 0.825,0.31658 1.5,1.2346 1.5,2.04004 0,0.80544 2.03552,3.13239 4.52338,5.171 4.60725,3.77529 10.47662,11.50269 10.47662,13.79312 0,1.61363 7.0015,15.42321 9.84238,19.41286 1.18669,1.66655 2.15762,4.34197 2.15762,5.94539 0,1.86332 0.90212,3.69967 2.5,5.08901 1.375,1.19555 2.4915,2.5142 2.48112,2.93034 -0.024,0.96173 -4.66581,8.01826 -8.15616,12.39909 -2.4992,3.13681 -2.74631,4.37373 -3.7591,18.81662 -0.59624,8.50251 -1.53714,15.91218 -2.0909,16.46594 -0.55376,0.55376 -2.45751,1.02216 -4.23055,1.0409 -3.05964,0.0323 -3.26886,0.28097 -4.11073,4.88524 -0.56066,3.06633 -0.50962,6.19367 0.13874,8.5 2.82456,10.04759 3.46866,13.38575 4.27363,22.14882 0.9704,10.56401 2.60521,20.07746 4.16716,24.25 1.38596,3.70242 6.78219,3.93215 9.10466,0.38762 1.1044,-1.68552 2.92808,-2.58009 6.36501,-3.1222 7.43122,-1.17214 14.44312,-0.71132 16.42172,1.07921 1.3307,1.20431 3.5222,1.52614 9.0749,1.33268 4.0263,-0.14028 12.0455,0.0796 17.8205,0.48865 8.701,0.61628 11.165,0.46131 14.3816,-0.90453 2.7534,-1.16918 4.1921,-1.33771 4.95,-0.57983 0.5876,0.58762 1.8784,1.0684 2.8684,1.0684 2.2973,0 2.3538,-3.51425 0.1767,-11 -0.8797,-3.025 -2.1159,-8.29678 -2.7471,-11.71506 -0.8918,-4.82934 -2.0375,-7.27929 -5.1386,-10.98816 l -3.991,-4.7731 -0.3487,-13.01184 c -0.1918,-7.15651 -0.7737,-13.5313 -1.2931,-14.16619 -0.5194,-0.63489 -0.6635,-2.27329 -0.3202,-3.6409 0.3432,-1.36761 0.1847,-2.75807 -0.3522,-3.08991 -1.1834,-0.73137 -2.3207,1.86996 -1.6181,3.70091 0.2777,0.72367 -0.1392,2.55711 -0.9263,4.07432 -0.8466,1.63193 -1.2295,4.26202 -0.9374,6.43978 0.5667,4.22522 -0.9442,5.99171 -6.8271,7.98206 -3.1145,1.0537 -4.2396,0.96154 -8.0142,-0.65643 -6.8542,-2.93807 -7.2953,-3.95804 -4.4405,-10.26743 l 2.4379,-5.38805 -2.0965,-8.91994 c -1.8964,-8.06873 -1.9778,-9.64328 -0.8532,-16.5 1.2565,-7.6601 4.8576,-17.06123 7.7667,-20.2758 1.0557,-1.16652 1.3877,-2.73019 0.9958,-4.6899 -0.768,-3.83972 0.9649,-5.20967 5.6319,-4.45233 4.4344,0.71962 6.6952,-0.82841 6.6952,-4.58447 0,-1.47266 0.4487,-3.12631 0.9972,-3.67477 0.5485,-0.54847 1.2098,-6.02029 1.4697,-12.1596 0.2707,-6.39378 1.0899,-12.64001 1.9177,-14.62123 1.5976,-3.82367 1.2862,-4.62196 -1.803,-4.62196 -2.4192,0 -6.5888,-6.97195 -6.5844,-11.00945 0,-1.4287 -0.8585,-3.04738 -1.9972,-3.75848 -2.4043,-1.5015 -2.5479,-4.27177 -0.4336,-8.36051 1.9943,-3.8566 6.8177,-5.87156 14.0551,-5.87156 5.3891,0 5.8864,0.21739 9.5321,4.16639 4.4197,4.78739 4.5776,5.3719 1.8464,6.83361 -2.5216,1.3495 -2.6512,5.97819 -0.25,8.92907 1.0856,1.33411 4.5975,2.92411 9.25,4.18787 12.6938,3.44805 11.6844,3.47067 12.2558,-0.27465 0.2804,-1.83826 0.281,-5.64325 0,-8.45553 -0.3215,-3.2326 -0.095,-5.36915 0.6172,-5.80902 0.6192,-0.38267 1.1258,-2.48334 1.1258,-4.66814 0,-2.62337 0.5137,-4.1695 1.5127,-4.55286 2.0558,-0.78887 4.8034,1.55751 3.5675,3.0466 -0.5194,0.62588 -0.9619,6.52868 -0.9832,13.11732 -0.021,6.58864 -0.045,12.87934 -0.054,13.97934 -0.01,1.1 -0.1913,4.475 -0.4069,7.5 -0.3738,5.24514 1.5134,11.28809 5.3092,17 0.5482,0.825 3.286,5.40167 6.0838,10.17038 4.5365,7.73215 4.9457,8.89662 3.7813,10.76117 -0.7182,1.14994 -2.0537,2.3282 -2.9679,2.61835 -2.6427,0.83875 -4.2385,3.25955 -3.0984,4.7001 1.1265,1.4233 4.8643,12.89343 5.5187,16.93535 0.6508,4.01886 -0.6592,5.25067 -5.6842,5.34512 -2.4903,0.0468 -4.8055,0.36283 -5.145,0.70227 -0.3394,0.33945 -1.4223,4.13844 -2.4063,8.44222 -0.984,4.30377 -2.3114,9.14072 -2.9497,10.74876 -0.6383,1.60805 -0.8846,4.17998 -0.5473,5.71539 0.4662,2.12259 -0.1202,3.85754 -2.4467,7.23893 -1.6829,2.44599 -3.6155,4.63248 -4.2947,4.85888 -0.74,0.24668 0.7988,2.5858 3.8401,5.83735 2.7912,2.98415 6.8289,8.15415 8.9728,11.4889 5.215,8.11189 11.2004,14.77549 15.0596,16.76607 6.1314,3.16254 9.277,9.81688 5.9471,12.58048 -2.3686,1.96579 -2.3677,6.44957 0,10.66041 2.0249,3.59794 2.536,3.91124 6.0504,3.70932 2.1113,-0.12131 5.15809,-0.22042 6.77059,-0.22026 2.7942,2.9e-4 2.8529,-0.087 1.25,-1.85819 -2.1438,-2.36888 -2.1934,-3.87038 -0.07,-2.10779 1.994,1.65487 11.9283,2.17668 40.8877,2.14766 17.2854,-0.0173 23.3929,-0.38155 28.5,-1.69964 3.575,-0.92268 6.9275,-2.09692 7.45,-2.60941 0.5225,-0.5125 2.795,-0.93182 5.05,-0.93182 2.255,0 4.634,-0.53404 5.2868,-1.18676 0.9156,-0.91567 1.7184,-0.68725 3.5144,1 1.2802,1.20272 2.8612,2.18676 3.5133,2.18676 0.652,0 1.1855,0.46899 1.1855,1.04221 0,0.57321 0.4502,1.58571 1.0004,2.25 0.5501,0.66428 1.8254,2.28957 2.8338,3.61174 1.451,1.90233 3.0159,2.502 7.4997,2.87383 5.3653,0.44494 5.6661,0.34912 5.6661,-1.80492 0,-1.25114 -1.8723,-6.23804 -4.1606,-11.082 -3.2599,-6.90049 -4.7556,-9.0146 -6.9087,-9.76519 -1.6565,-0.57744 -3.813,-2.77498 -5.4287,-5.53208 -2.292,-3.91097 -2.615,-5.40913 -2.2282,-10.33385 0.2488,-3.16786 1.4063,-9.13474 2.5722,-13.25974 1.1658,-4.125 2.1274,-7.54365 2.1369,-7.59699 0.1117,-0.63228 -3.9914,-4.40301 -4.7912,-4.40301 -1.9349,0 -2.3538,-1.97891 -1.1749,-5.55087 0.9746,-2.95319 0.8248,-4.61212 -0.9423,-10.42969 -1.1557,-3.80486 -2.5029,-7.16614 -2.9937,-7.46952 -0.4909,-0.30337 -0.9309,-8.5167 -0.9778,-18.25183 -0.08,-16.59695 0.05,-17.8976 2.0842,-20.86637 1.3509,-1.97141 3.4818,-3.49924 5.6472,-4.04892 3.2443,-0.82356 3.5964,-1.31826 5.2457,-7.3718 1.9947,-7.32087 1.568,-8.47924 -3.4721,-9.42477 -2.6497,-0.49708 -3.6837,-1.42764 -5.1163,-4.60461 -0.9835,-2.18989 -2.3981,-3.98162 -3.1396,-3.98162 -0.7964,0 -1.3609,-1.12543 -1.3795,-2.75 -0.017,-1.5125 -1.3672,-5.43854 -3,-8.72454 -3.5438,-7.13209 -3.5706,-7.49045 -0.8221,-10.98463 2.0903,-2.65738 2.3762,-2.71987 10.9088,-2.38486 8.0506,0.31609 9.0742,0.59541 12.6035,3.43922 2.1126,1.70235 5.1912,5.00342 6.8412,7.33569 2.5548,3.61126 3.0098,5.19471 3.0661,10.6709 0.036,3.53672 0.5325,6.89683 1.1026,7.4669 0.7153,0.71532 2.755,0.27649 6.5825,-1.41623 6.2713,-2.77346 7.4783,-5.3024 6.2954,-13.19047 -0.3591,-2.39445 -0.1462,-6.23519 0.4731,-8.53497 0.8015,-2.97677 0.8168,-4.49048 0.053,-5.25421 -2.3181,-2.31807 -1.4443,-2.55537 6.5629,-1.78243 0.7524,0.0726 1.0934,2.72506 1.0103,7.85963 -0.181,11.197 0.3772,29.2193 1.0222,33 0.4583,2.68656 1.003,3.25 3.1421,3.25 1.8204,0 4.0114,1.51636 7.3887,5.11366 4.554,4.8506 4.801,5.40167 4.801,10.71215 0,5.22591 -0.2782,5.88197 -4.1805,9.85813 -4.1502,4.22872 -4.1667,4.27491 -2.2758,6.36431 1.0476,1.15757 2.3663,3.5035 2.9305,5.21318 0.7208,2.1842 1.8925,3.33824 3.9406,3.88112 3.4576,0.91652 4.5492,2.38123 4.5699,6.1322 0.011,2.07584 -0.64,3.0239 -2.5864,3.7639 -1.8263,0.69437 -2.4156,1.47401 -1.9773,2.61615 0.7774,2.0257 -1.9384,6.3452 -3.9894,6.3452 -1.2131,0 -1.3843,0.76161 -0.8433,3.75 0.3735,2.0625 1.2519,4.88408 1.9522,6.27017 0.9787,1.93726 3.4595,12.48751 3.4595,14.71238 0,0.81531 -8.659,4.22506 -10.7814,4.24549 -3.1272,0.0301 -3.8682,2.65232 -1.7586,6.22361 1.1635,1.96963 1.4236,3.31476 0.7677,3.97064 -1.256,1.25605 -5.0272,-0.9651 -5.8063,-3.41981 -0.9372,-2.95288 -2.2911,-1.96328 -3.417,2.49752 -0.59,2.3375 -1.5193,5.30995 -2.0651,6.60544 -1.0105,2.39816 -0.2303,6.19174 2.6006,12.64456 0.7239,1.65 1.8381,4.8 2.4762,7 0.638,2.2 1.7218,5.79188 2.4084,7.98196 l 1.2482,3.98197 13.8409,-0.23083 c 10.6964,-0.17839 14.3426,0.0978 16.049,1.21594 1.2144,0.79572 5.7471,1.75477 10.0727,2.13121 4.3256,0.37644 8.4214,1.12513 9.1017,1.66376 0.6804,0.53863 2.2935,0.71416 3.5848,0.39008 1.29121,-0.32409 3.74861,-0.18748 5.46091,0.30358 2.3206,0.66554 3.4121,0.53255 4.2876,-0.52242 0.646,-0.77839 2.2359,-1.41525 3.5331,-1.41525 2.9894,0 3.0438,-0.23681 5.0015,-21.77318 0.3636,-4.00025 1.0512,-7.5143 1.5281,-7.80902 0.4768,-0.29471 0.867,-2.47918 0.867,-4.85437 0,-2.38509 0.5987,-4.8154 1.3372,-5.42833 0.7355,-0.61038 1.9145,-4.37798 2.6201,-8.37244 0.7055,-3.99446 2.0859,-11.53766 3.0674,-16.76266 0.9816,-5.225 2.1009,-11.3 2.4874,-13.5 0.9658,-5.49779 2.5107,-20.30964 3.1579,-30.27826 0.5126,-7.89319 0.6883,-8.39324 3.7782,-10.75 1.7823,-1.35946 3.6909,-2.47174 4.2412,-2.47174 1.8376,0 4.5674,-3.91014 4.0666,-5.82509 -0.272,-1.03996 -0.068,-2.65332 0.4538,-3.58524 1.1614,-2.07546 -0.6329,-4.58967 -3.2756,-4.58967 -1.0667,0 -2.8307,-1.69348 -4.2592,-4.08893 -1.3411,-2.24891 -3.8457,-4.94479 -5.5658,-5.99086 -3.8123,-2.31842 -7.1004,-7.46943 -7.1055,-11.13125 0,-3.67544 3.354,-6.54637 9.8787,-8.44314 9.378,-2.72626 16.2054,-0.75155 24.33571,7.03867 7.8718,7.54247 8.8524,11.56623 3.9035,16.0173 -1.6173,1.45456 -1.8514,2.21884 -0.9956,3.25 2.0633,2.48621 4.5808,1.57373 5.2468,-1.90179 0.881,-4.59706 6.8183,-23.0662 7.7689,-24.16683 0.8531,-0.98756 8.8583,2.16815 8.8583,3.49198 0,0.42427 -1.125,2.10839 -2.5,3.74248 -1.375,1.6341 -2.5,3.62437 -2.5,4.42282 0,0.79846 -1.35,5.19026 -3,9.75955 -1.65,4.56929 -3,9.13725 -3,10.15102 0,1.01377 1.5909,3.60412 3.5353,5.75632 2.0035,2.2177 4.4374,6.58475 5.6176,10.07941 1.1453,3.39147 2.817,6.44004 3.7147,6.7746 4.33,1.61356 11.34,6.73947 12.6312,9.23624 2.456,4.74946 3.4582,10.79318 1.9917,12.01033 -0.7062,0.58609 -1.053,1.94907 -0.7706,3.02885 0.3767,1.44068 0.01,1.96323 -1.3808,1.96323 -3.0935,0 -6.5015,2.8873 -5.5066,4.66519 0.4818,0.86091 0.4594,3.72854 -0.051,6.53697 -0.5001,2.75179 -0.6565,5.25609 -0.3475,5.56512 0.3091,0.30903 3.0317,-0.68771 6.0503,-2.21497 5.5416,-2.80381 8.5158,-2.85081 8.5158,-0.13459 0,2.40242 -6.1616,6.40617 -10.4007,6.75828 -2.8555,0.23719 -4.441,1.05085 -5.9174,3.03678 -1.8687,2.51354 -1.9226,3.13391 -0.7336,8.44701 1.23,5.49603 1.1908,5.80914 -0.9433,7.53723 -1.2246,0.99164 -3.2466,1.80298 -4.4933,1.80298 -1.2468,0 -2.8162,0.662 -3.4877,1.4711 -1.384,1.66756 -0.9554,9.32481 0.7851,14.0289 0.6105,1.65 1.761,5.025 2.5566,7.5 2.7116,8.43516 4.9319,14.49627 6.2841,17.15429 0.7426,1.45986 1.3502,3.54226 1.3502,4.62756 0,2.50949 2.5012,4.62354 4.5432,3.83996 0.8627,-0.33107 3.2309,0.11157 5.2627,0.98365 2.0318,0.87207 6.6191,1.76543 10.1941,1.98523 3.575,0.21981 7.7084,0.60976 9.1854,0.86657 2.185,0.3799 2.7441,0.0547 3,-1.74518 0.2304,-1.61966 1.118,-2.3075 3.3146,-2.56836 3.547,-0.42124 18.5711,1.51414 23.3426,3.00695 8.35435,2.61375 15.35745,2.87094 17.85415,0.6557 0.9918,-0.87994 2.6856,-1.76162 3.764,-1.95928 3.293,-0.60356 5.495,-9.79317 4.358,-18.18747 -0.8244,-6.08624 -0.6949,-7.28465 1.1739,-10.87011 1.1552,-2.21635 1.8503,-4.2798 1.5447,-4.58543 -0.3056,-0.30564 0.3121,-1.48909 1.3727,-2.62989 2.3256,-2.50141 4.658,-11.45781 5.5532,-21.32419 0.5611,-6.18381 0.4283,-7.25 -0.9027,-7.25 -2.7912,0 -1.6509,-3.50593 2.4394,-7.5 3.6665,-3.58025 5.1218,-6.5 3.2398,-6.5 -0.4181,0 -1.9931,-1.14321 -3.5,-2.54047 -2.1664,-2.00875 -2.7398,-3.43893 -2.7398,-6.83322 0,-2.36101 -0.5059,-6.8118 -1.1242,-9.89063 -1.4261,-7.10082 -0.5799,-11.57471 3.0541,-16.14751 1.5834,-1.9924 3.4049,-5.81541 4.0479,-8.49559 0.643,-2.68017 1.9235,-5.73285 2.8456,-6.78373 0.9221,-1.05088 2.2925,-2.97974 3.0454,-4.28635 1.2067,-2.09456 1.1545,-2.53226 -0.4412,-3.69908 -0.9954,-0.72788 -2.8489,-1.32342 -4.1187,-1.32342 -1.4127,0 -2.3089,-0.59797 -2.3089,-1.54049 0,-0.84727 -0.9606,-2.83979 -2.1347,-4.42782 -1.1741,-1.58802 -1.8682,-3.58178 -1.5425,-4.43057 0.8619,-2.24606 -1.7031,-4.32063 -6.303,-5.09777 -4.7034,-0.79463 -5.0886,-2.27448 -1.2669,-4.86673 1.5109,-1.02487 3.6553,-3.27317 4.7653,-4.99624 2.2912,-3.55663 9.6115,-7.61463 13.7639,-7.63005 4.7548,-0.0177 9.5185,2.66918 15.7992,8.91096 l 6.046,6.00861 -4.5954,2.1601 c -6.0096,2.82483 -6.9606,4.67585 -4.49,8.7385 2.0645,3.39479 4.2364,3.91309 8.4165,2.00851 2.2753,-1.03671 3.0134,-0.79238 6.797,2.25 4.0854,3.28499 4.5307,3.40403 11.874,3.1742 6.4957,-0.2033 8.0325,0.0783 10.3422,1.89511 2.2668,1.78309 2.6074,2.64433 2.0715,5.23879 -0.3527,1.70769 -0.8279,5.80489 -1.056,9.10489 -0.228,3.3 -0.7062,7.45732 -1.0627,9.23848 -0.5245,2.62119 -0.2931,3.34973 1.2138,3.82215 3.7859,1.18687 4.6257,2.09357 6.7205,7.25591 1.1777,2.90223 3.6038,6.76615 5.3913,8.58649 2.7832,2.83435 3.2468,4.01252 3.2278,8.20333 -0.015,3.31134 -0.6546,5.70198 -1.9778,7.39364 -2.1373,2.7324 -2.5679,5.53101 -1,6.5 2.1141,1.30656 1.0219,6.30982 -2,9.16199 -1.65,1.55733 -3,3.69754 -3,4.75602 0,1.05848 -0.7427,2.74522 -1.6505,3.74832 -1.5253,1.68537 -1.5296,2.37452 -0.057,9.07874 0.8768,3.99021 1.8512,9.17602 2.1654,11.52403 0.5135,3.83594 0.3287,4.36137 -1.8207,5.17859 -1.365,0.51895 -2.8741,2.29194 -3.5145,4.12894 -1.1894,3.41204 -0.5547,4.98103 3.1269,7.73007 2.1462,1.60253 2.264,4.52182 0.25,6.1933 -2.0131,1.67071 -1.8925,3.29805 0.6142,8.28984 4.5689,9.09825 10.5735,14.42244 13.2486,11.74732 1.2926,-1.29255 7.6372,-1.37565 7.6372,-0.10003 0,0.51542 1.5927,0.67866 3.5394,0.36276 2.6068,-0.42302 3.8584,-0.14264 4.75,1.06403 0.774,1.04755 2.4728,1.5778 4.7106,1.47035 4.424,-0.21242 7.0316,0.9198 6.3299,2.74849 -0.6198,1.61514 -0.1571,1.71786 8.4449,1.87455 4.9284,0.0898 6.1622,-0.17914 5.75,-1.25329 -0.2886,-0.75218 -0.5248,-1.81112 -0.5248,-2.3532 0,-0.55535 -0.9822,-0.69106 -2.25,-0.31088 -2.0174,0.60496 -2.0949,0.51367 -0.75,-0.88322 1.0854,-1.1273 4.1258,-1.67194 11,-1.97044 5.225,-0.22689 10.0625,-0.20097 10.75,0.0576 0.9555,0.35934 1.25,6.53837 1.25,26.22445 l 0,25.75434 -2.3828,-0.4555 c -1.3105,-0.25053 -2.6871,0.0369 -3.059,0.63867 -0.4333,0.70114 0.4226,1.09417 2.3828,1.09417 l 3.059,0 0,26 0,26 -826.49996,0 -826.49965,-1e-5 0,-68.5 z m 1642.50001,15.5 c 0.3399,-0.55 0.1415,-1 -0.441,-1 -0.5824,0 -1.059,0.45 -1.059,1 0,0.55 0.1984,1 0.441,1 0.2425,0 0.7191,-0.45 1.059,-1 z m -83.5,-58.34212 c 0,-0.46703 -0.841,-2.04361 -1.8688,-3.50351 -1.0278,-1.4599 -2.1883,-3.68289 -2.5787,-4.93996 -0.4426,-1.4252 -2.6329,-3.21331 -5.8183,-4.75 -5.9288,-2.86013 -7.3054,-3.02412 -8.0958,-0.96441 -0.3166,0.825 -1.4373,1.5 -2.4904,1.5 -2.0092,0 -3.1103,-2.50401 -3.1343,-7.12756 -0.01,-1.44515 -0.6887,-3.18775 -1.5137,-3.87244 -0.825,-0.68469 -1.5069,-1.97729 -1.5153,-2.87244 -0.01,-0.89516 -0.4417,-2.30209 -0.9629,-3.12652 -0.7766,-1.22851 -1.8744,-0.59699 -6.0843,3.5 l -5.1367,4.99896 0.633,9.43776 c 0.3481,5.19077 1.1103,10.01297 1.6938,10.71601 1.3788,1.66134 7.9098,1.41244 8.5772,-0.32688 0.731,-1.90508 6.3196,-1.26064 7.6584,0.88311 0.9487,1.51901 2.4619,1.73213 10.8694,1.53085 5.3721,-0.12861 9.7674,-0.61595 9.7674,-1.08297 z m -195.54086,-8.20281 c 2.943,-2.22533 2.8227,-14.3858 -0.1988,-20.09779 -1.7827,-3.36994 -2.0796,-5.14204 -1.5919,-9.5 0.3297,-2.9465 1.1521,-6.03228 1.8274,-6.85728 0.6754,-0.825 1.9175,-3.525 2.7603,-6 0.8428,-2.475 1.8531,-5.2875 2.2451,-6.25 0.5429,-1.3329 0.219,-1.75 -1.359,-1.75 -2.6165,0 -3.5288,1.7444 -7.6772,14.68 -3.757,11.71539 -4.8995,13.63425 -7.6062,12.77519 -1.7161,-0.54467 -1.8497,0.0487 -1.7405,7.72742 0.1805,12.68866 0.7031,14.25421 4.8861,14.63869 1.9226,0.17671 3.9231,0.73921 4.4456,1.25 1.2431,1.21526 1.6746,1.14894 4.0091,-0.61623 z m 31.99321,-4.29818 c -0.04,-4.46134 -0.4524,-5.65414 -2.5,-7.22777 -1.3488,-1.03656 -3.4102,-1.89465 -4.581,-1.90688 -1.4172,-0.0148 -2.5492,-1.0375 -3.3869,-3.05993 -1.213,-2.9285 -3.8695,-3.64272 -3.1143,-0.83731 0.2036,0.75625 0.4714,4.94466 0.5951,9.30757 0.2565,9.04415 0.7871,9.62053 8.5348,9.27065 l 4.5,-0.20322 -0.048,-5.34311 z M 615.07144,516.28689 c 0,-1.21999 1.2199,-3.26638 2.7109,-4.54754 2.3237,-1.99675 2.5379,-2.60624 1.5,-4.26827 -0.666,-1.06639 -1.2234,-2.5075 -1.2387,-3.20246 -0.047,-2.15167 -5.1437,-8.10768 -12.9061,-15.08323 -7.0131,-6.3023 -12.0685,-8.73506 -10.6908,-5.14461 0.3242,0.84466 0.8386,5.90716 1.1431,11.25 0.603,10.57736 2.2886,19.97695 3.7437,20.87626 0.5062,0.31283 3.1293,0.56878 5.8291,0.56878 2.6998,0 4.9088,0.39808 4.9088,0.88461 0,0.48654 1.125,0.88462 2.5,0.88462 1.9153,0 2.5,-0.51879 2.5,-2.21816 z m -910.82135,-10.28184 c 1.0816,-1.375 2.8127,-2.5 3.8469,-2.5 1.0342,0 3.0265,-0.52223 4.4274,-1.16052 2.9124,-1.32699 3.171,-3.44036 1.1425,-9.33948 -0.7565,-2.2 -1.7,-6.925 -2.0968,-10.5 -0.8369,-7.54051 -1.8335,-9.20504 -5.0309,-8.40255 -2.5125,0.63061 -4.4678,-1.76868 -4.4678,-5.48249 0,-1.10908 -0.4778,-4.24476 -1.0619,-6.96816 -0.7704,-3.59246 -1.4959,-4.88795 -2.643,-4.7196 -1.5078,0.2213 -2.378,2.0387 -5.3019,11.0728 -0.712,2.2 -2.3518,5.67856 -3.6439,7.73013 -1.8128,2.87828 -2.3526,5.16197 -2.364,10 -0.01,3.44843 -0.6867,9.1197 -1.5078,12.60283 -1.607,6.8168 -1.3975,8.10227 1.2922,7.92707 0.9517,-0.062 3.4782,0.22335 5.6144,0.63409 3.2972,0.63398 3.793,0.50955 3.2814,-0.82366 -0.8028,-2.09197 -9e-4,-1.97946 3.0617,0.42954 3.1778,2.49972 3.0852,2.50821 5.4515,-0.5 z m 346.553246,-5.25 c -0.58096,-7.49431 -2.92187,-13.41569 -7.77911,-19.67744 -6.18413,-7.97232 -5.98684,-7.81575 -9.07119,-7.19888 -2.06981,0.41396 -3.36001,0.0292 -4.69043,-1.39885 -1.79751,-1.9294 -1.82975,-1.87231 -1.56875,2.77764 0.96038,17.10994 1.48277,21.55027 2.84529,24.18509 0.84276,1.62972 1.53229,3.88547 1.53229,5.01278 0,1.92371 0.58923,2.04966 9.58882,2.04966 l 9.58882,0 -0.44574,-5.75 z m -405.489546,3.59238 c 1.6543,1.65431 3.5899,1.43473 6.3263,-0.71769 2.0222,-1.59067 3.1086,-1.73552 7.1577,-0.95432 2.6255,0.50654 6.0111,0.68668 7.5236,0.40031 1.6983,-0.32154 2.75,-0.084 2.75,0.62099 0,0.62791 0.2455,0.89619 0.5455,0.59616 0.3001,-0.30002 -0.3749,-4.05978 -1.5,-8.355 -1.125,-4.29523 -2.0455,-9.07475 -2.0455,-10.62117 0,-1.73661 -0.5326,-2.81166 -1.393,-2.81166 -0.7661,0 -1.6809,-0.75025 -2.0327,-1.66722 -1.2022,-3.13269 -2.4692,0.0941 -2.7733,7.06283 -0.3121,7.15108 -1.7864,9.59143 -5.0401,8.34285 -1.2508,-0.47996 -1.6378,-4.29724 -2.2467,-22.15915 -0.7777,-22.8172 -1.064,-23.8766 -5.2238,-19.32931 -1.4312,1.56466 -1.8293,2.8592 -1.3068,4.25 1.7071,4.54364 -1.2664,25.70119 -4.1298,29.38486 -2.0489,2.63586 -2.6705,13.49232 -0.8374,14.62522 0.5589,0.34546 0.6975,1.15952 0.308,1.80902 -0.3896,0.64949 0.072,0.54747 1.0261,-0.22672 1.3136,-1.06618 2.0151,-1.12682 2.8919,-0.25 z m 349.4424957,0.39926 c 3.69228,0.78749 4.65703001,0.67308 5.63810001,-0.66863 0.65098999,-0.89027 2.98212999,-1.89933 5.18032999,-2.24234 2.1982,-0.34302 5.2342203,-1.48839 6.7467203,-2.54526 3.40009,-2.37585 3.47213,-4.42524 0.69732,-19.83527 -1.52188,-8.45176 -2.58853,-11.89886 -4.1248203,-13.33013 -1.77714,-1.65566 -1.99769,-2.75138 -1.54924,-7.69693 0.28758,-3.17154 1.34144,-8.944 2.3419,-12.82768 2.3834203,-9.25218 1.3514103,-10.54452 -4.95531,-6.20538 -2.48611,1.71049 -4.84244999,3.10998 -5.23631999,3.10998 -0.39387,0 -2.88101001,2.025 -5.52698001,4.5 -2.64598,2.475 -5.4721897,4.5 -6.2804697,4.5 -1.50116,0 -4.61608,-5.19154 -4.61608,-7.69348 0,-0.76241 0.9,-3.15034 2,-5.30652 2.42801,-4.75929 2.9622,-17.04344 0.65799,-15.13112 -0.7381,0.61257 -1.67186,0.78392 -2.075,0.38077 -0.40315,-0.40314 -1.1769,0.0602 -1.71945,1.02971 -1.26971,2.26885 -2.86354,1.28312 -2.86354,-1.77099 0,-1.52407 -0.74279,-2.60935 -2.07536,-3.03229 -1.14145,-0.36228 -2.2256,-0.5051 -2.40922,-0.31739 -0.7063,0.72205 -0.89786,8.7922 -0.22468,9.46538 1.48044,1.48044 0.61059,2.44099 -1.95948,2.16378 -2.43851,-0.26302 -2.81179,0.18665 -4.32679,5.21215 -0.91192,3.025 -2.24356,6.59049 -2.95919,7.92331 -1.72941,3.22092 -1.40415,19.28204 0.48191,23.796 0.78064,1.86835 1.70281,5.73333 2.04925,8.58884 0.34645,2.85552 1.55788,7.17512 2.69207,9.59912 1.80216,3.85158 1.91681,4.95076 0.90931,8.71771 -1.59869,5.97731 0.94488,12.22158 3.37602,8.2879 0.36953,-0.59791 1.49203,-0.87264 2.49444,-0.61051 1.09311,0.28586 2.0771,-0.17956 2.45856,-1.16288 0.58049,-1.4964 0.74848,-1.48676 1.92482,0.11051 0.70886,0.9625 2.00016,1.75 2.86957,1.75 0.8694,0 1.86229,0.45557 2.20642,1.01238 0.37559,0.60771 1.24465,0.66599 2.17419,0.14579 0.88613,-0.4959 3.4539397,-0.4602 6.0030097,0.0835 z m -170.8581357,-2.1489 c 1.24896,-0.66842 2.17329,-2.12637 2.17329,-3.42792 0,-2.20302 1.6532,-4.66482 3.13261,-4.66482 0.40294,0 1.01826,0.9 1.36739,2 0.87237,2.7486 2.94736,2.50833 4.31805,-0.5 0.62649,-1.375 1.55057,-2.5 2.05352,-2.5 1.08492,0 2.12843,2.43901 2.12843,4.9748 0,4.84217 8.53791,1.4632 12.27098,-4.85638 2.41782,-4.09305 2.24077,-5.48478 -2.20268,-17.31451 -4.44564,-11.83556 -9.59848,-18.43898 -13.97591,-17.91027 l -2.40761,0.2908 0.64496,-10.54102 c 0.67706,-11.06562 0.459,-11.77074 -3.78744,-12.24746 -4.26453,-0.47874 -7.5423,-2.35275 -7.5423,-4.31219 0,-1.08116 0.45,-2.24385 1,-2.58377 0.55,-0.33992 1,-1.68013 1,-2.97825 0,-1.29812 0.62937,-4.98406 1.39861,-8.19098 1.54877,-6.45677 4.12018,-18.05769 5.116,-23.08077 1.06643,-5.37931 -0.51392,-4.27446 -5.36392,3.75 -1.91435,3.16734 -3.49269,9.69367 -3.43885,14.21943 0.0449,3.77302 -0.32152,4.8393 -1.8271,5.31715 -1.38698,0.44021 -1.65553,1.04117 -1.01911,2.28057 1.07423,2.09204 0.39865,4.18285 -1.35156,4.18285 -0.76771,0 -2.23357,3.01015 -3.50618,7.19992 -2.06886,6.81129 -7.14356,15.80008 -8.92007,15.80008 -0.92885,0 -4.09675,7.80854 -4.07054,10.03343 0.009,0.80661 1.13802,2.52969 2.50782,3.82906 1.3698,1.29937 4.0697,5.69024 5.99977,9.75748 1.93008,4.06724 4.85732,8.59614 6.50498,10.06421 1.64766,1.46807 3.51296,4.39553 4.14511,6.50546 1.03165,3.44334 0.92792,4.07194 -1.0128,6.13775 -1.18919,1.26583 -2.16216,3.26918 -2.16216,4.45188 0,1.1827 -0.9,2.63203 -2,3.22073 -1.1,0.5887 -2,1.46837 -2,1.95481 0,1.21643 8.15651,0.56698 10.82671,-0.86207 z m 662.77289,-2.34274 c -0.90651,-5.87284 -3.61019,-13.86149 -4.50427,-13.30892 -0.40633,0.25113 -0.67711,3.59587 -0.60174,7.43276 0.13916,7.08359 1.41814,10.12616 4.25666,10.12616 1.20726,0 1.37545,-0.84164 0.84935,-4.25 z m -860.81925,-1.72868 c 0.047,-1.64261 -0.3348,-3.24595 -0.8477,-3.56296 -0.513,-0.31702 -0.9503,-1.56234 -0.9718,-2.76738 -0.031,-1.73974 -0.3429,-1.49099 -1.5143,1.2078 -1.5061,3.47013 -1.5348,6.58159 -0.082,8.89978 1.2554,2.00343 3.3164,-0.27556 3.416,-3.77724 z m 448.560586,1.53851 c 2.02464,-1.87637 2.51092,-3.08939 2.10464,-5.25 -0.29059,-1.54541 -1.21055,-6.40983 -2.04434,-10.80983 -0.8338,-4.4 -1.89147,-10.475 -2.35037,-13.5 -0.45891,-3.025 -1.55531,-6.85 -2.43646,-8.5 -0.88115,-1.65 -1.60486,-3.58906 -1.60825,-4.30902 -0.003,-0.71996 -0.3969,-1.06753 -0.87446,-0.77237 -0.47757,0.29515 -1.17491,3.24671 -1.54966,6.55901 -0.64946,5.74049 -0.81027,6.02238 -3.43553,6.02238 -1.7999,0 -3.83641,-1.12607 -5.87765,-3.25 -2.60712,-2.71273 -3.28951,-4.46479 -4.12785,-10.59834 -0.5524,-4.04159 -1.23375,-7.57773 -1.51411,-7.85809 -0.74062,-0.74062 -3.6269,6.55786 -3.6269,9.17127 0,1.22133 1.11684,4.20387 2.48187,6.62788 3.43017,6.09128 7.05423,13.91783 7.82886,16.90728 0.64799,2.50072 2.18834,5.02869 7.59466,12.4641 2.29694,3.15902 2.70078,4.44156 1.98846,6.31509 -1.23173,3.2397 -1.24322,3.22081 1.96013,3.22081 1.63957,0 3.97435,-1.03833 5.48696,-2.44017 z m -5.34094,-3.50081 c 0,-0.51754 0.40939,-1.194 0.90976,-1.50325 1.29223,-0.79864 4.18962,0.47441 3.52548,1.54901 -0.73594,1.19078 -4.43524,1.1526 -4.43524,-0.0458 z M 296.6337,495.40431 c 0.38684,-0.62591 1.92211,-0.85239 3.55902,-0.525 2.7795,0.5559 2.87872,0.44079 2.87872,-3.33966 0,-6.90062 -9.70732,-31.0346 -12.48293,-31.0346 -0.86161,0 -1.97768,-1.08129 -2.48014,-2.40286 -0.50246,-1.32157 -1.3945,-2.7001 -1.98231,-3.06338 -1.96148,-1.21226 -2.19665,2.17007 -0.66773,9.60353 0.8329,4.04949 1.51158,10.78476 1.50818,14.96727 -0.007,8.74435 0.74304,12.66985 2.89423,15.14544 1.6989,1.9551 5.72725,2.34126 6.77296,0.64926 z m -54.7626,-2.25117 c 1.48519,-0.74355 6.07534,-1.91152 10.20034,-2.59548 6.48814,-1.0758 8.35993,-1.0203 13.87384,0.41137 3.50561,0.91023 6.99311,1.41732 7.75,1.12687 1.79547,-0.68898 1.78418,-6.7911 -0.0243,-13.15935 -0.77028,-2.71232 -1.95596,-8.0815 -2.63486,-11.9315 -0.6789,-3.85 -1.78609,-8.125 -2.46042,-9.5 -2.11551,-4.31363 -2.58152,-10.29712 -1.03423,-13.27951 1.8756,-3.61524 1.81156,-16.24194 -0.0904,-17.82042 -0.75881,-0.62973 -1.37963,-1.74751 -1.37963,-2.48397 0,-0.73646 -1.77286,-1.81639 -3.93969,-2.39986 -4.11371,-1.10771 -4.47164,-1.67071 -5.57588,-8.77049 -0.82668,-5.31524 -2.48443,-4.57241 -2.48443,1.11327 0,4.46712 -1.31951,6.64098 -4.03102,6.64098 -2.59051,0 -4.30376,-4.3375 -3.72864,-9.43992 0.56849,-5.04364 0.37454,-5.31782 -2.04804,-2.89524 -1.68431,1.68431 -1.88319,2.75403 -2.641,14.20472 -0.37713,5.6986 -0.77769,6.69932 -3.80262,9.5 -1.8596,1.72174 -3.67468,3.91794 -4.0335,4.88044 -0.82057,2.20108 -6.25445,2.39304 -7.07681,0.25 -0.333,-0.8678 -1.82835,-1.5 -3.54797,-1.5 -1.6348,0 -3.26399,-0.47185 -3.62041,-1.04856 -0.77019,-1.24619 -3.46999,0.64784 -3.46999,2.43435 0,0.6275 -1.63221,3.5646 -3.62714,6.5269 -2.9373,4.36164 -3.72346,6.58595 -4.13359,11.69525 -0.49413,6.15582 0.34299,9.4831 3.99831,15.89206 0.62738,1.1 2.15107,4.025 3.38599,6.5 6.26475,12.55572 18.15508,19.66376 26.17609,15.64809 z m 635.85224,-7.14511 c 1.7335,-3.23076 3.4253,-7.58441 3.7596,-9.67478 0.3342,-2.09038 1.3571,-5.37203 2.2729,-7.29257 1.5693,-3.29086 1.5622,-3.60566 -0.1233,-5.46816 -1.4672,-1.62119 -1.6007,-2.51525 -0.7428,-4.97606 0.9149,-2.62464 0.7947,-3.07947 -0.9616,-3.63691 -1.1041,-0.35041 -2.2492,-0.39531 -2.5448,-0.0998 -0.8708,0.87082 -5.7869,24.36835 -7.0144,33.52691 -0.8185,6.10709 1.3081,5.16234 5.3544,-2.37865 z m -765.6519,-65.50298 c 0,-0.55 -0.45,-1 -1,-1 -0.55,0 -1,0.45 -1,1 0,0.55 0.45,1 1,1 0.55,0 1,-0.45 1,-1 z m -468.39865,-9.82722 c -1.7728,-1.77284 -3.1363,-1.00924 -2.2627,1.26723 0.3519,0.9172 1.2303,1.2789 2.201,0.90639 1.4608,-0.56054 1.4667,-0.76864 0.062,-2.17362 z m 192.38334,-5.04522 c -0.0254,-4.36264 -1.60657,-5.76814 -2.34356,-2.08322 -0.35262,1.76311 -0.64113,4.10451 -0.64113,5.2031 0,1.66213 0.25181,1.78846 1.5,0.75256 0.825,-0.68469 1.49311,-2.42729 1.48469,-3.87244 z m 378.83044,-20.37756 c 0.26476,-1.39758 -0.37621,-1.75 -3.18279,-1.75 -3.62255,0 -5.24055,1.20688 -4.09751,3.05636 1.07005,1.73137 6.90313,0.6847 7.2803,-1.30636 z m 566.18486,-2.75 c 0,-2.11715 -2.4111,-2.6591 -4.8781,-1.09649 -1.941,1.22941 -0.4715,3.09649 2.4371,3.09649 1.7743,0 2.441,-0.54623 2.441,-2 z m -845.499994,-14 c 0.33992,-0.55 0.14148,-1 -0.44098,-1 -0.58246,0 -1.05902,0.45 -1.05902,1 0,0.55 0.19844,1 0.44098,1 0.24254,0 0.7191,-0.45 1.05902,-1 z m 10.5,-0.97432 c 0,-0.53588 -1.28306,-1.63782 -2.85124,-2.44876 -2.16076,-1.11737 -3.13178,-1.1939 -4.00966,-0.31602 -0.87787,0.87787 -0.61118,1.4623 1.10125,2.41332 2.72069,1.51095 5.75965,1.69639 5.75965,0.35146 z m -90.606986,-15.60747 c 1.05872,-2.75898 0.6972,-3.73796 -0.89301,-2.41821 -1.63697,1.35856 -2.0378,4 -0.60699,4 0.49116,0 1.16616,-0.7118 1.5,-1.58179 z M 1143.0714,552.50505 c 0,-0.55 0.675,-1 1.5,-1 0.825,0 1.5,0.45 1.5,1 0,0.55 -0.675,1 -1.5,1 -0.825,0 -1.5,-0.45 -1.5,-1 z"
       id="path2830" />
  </g>
</svg>
