<?xml version="1.0" standalone="no"?>
<!DOCTYPE svg PUBLIC "-//W3C//DTD SVG 20010904//EN"
 "http://www.w3.org/TR/2001/REC-SVG-20010904/DTD/svg10.dtd">
<svg version="1.0" xmlns="http://www.w3.org/2000/svg"
 width="621.000000pt" height="621.000000pt" viewBox="0 0 621.000000 621.000000"
 preserveAspectRatio="xMidYMid meet">
<metadata>
Created by potrace 1.11, written by Peter Selinger 2001-2013
</metadata>
<g transform="translate(0.000000,621.000000) scale(0.100000,-0.100000)"
fill="#000000" stroke="none">
<path d="M2949 6206 c-2 -2 -38 -6 -79 -10 -41 -3 -86 -7 -100 -10 -14 -2 -43
-7 -65 -10 -22 -3 -51 -8 -65 -11 -14 -3 -51 -10 -82 -15 -32 -6 -113 -26
-180 -45 -547 -150 -909 -408 -1178 -840 -33 -53 -60 -99 -60 -101 0 -3 -16
-38 -36 -77 -59 -116 -140 -358 -160 -477 -3 -14 -9 -50 -15 -80 -36 -191 -50
-546 -29 -745 15 -146 21 -195 26 -219 2 -12 9 -48 14 -81 5 -33 19 -100 30
-150 11 -49 20 -97 20 -106 0 -34 -84 -142 -160 -205 -89 -73 -96 -99 -31
-110 20 -3 68 -12 106 -19 39 -7 102 -17 140 -20 39 -4 77 -9 87 -10 22 -5
226 -17 321 -19 55 -2 81 -7 88 -17 5 -8 33 -52 61 -99 28 -47 58 -93 66 -102
23 -27 22 -292 -1 -333 -9 -16 -17 -35 -17 -42 0 -25 -21 -23 -64 6 -25 17
-49 31 -55 31 -18 0 -40 -67 -86 -256 -60 -247 -93 -329 -186 -466 -173 -253
-312 -463 -424 -643 -64 -104 -133 -214 -152 -243 -85 -131 -125 -264 -139
-464 l-6 -88 52 22 c28 12 127 64 218 115 397 224 553 282 767 288 297 9 566
-97 930 -365 104 -77 224 -123 405 -159 30 -6 69 -13 85 -17 17 -3 101 -7 187
-8 208 -4 367 23 589 99 l77 26 -85 182 c-165 353 -218 488 -203 517 6 11 34
48 63 82 l52 63 0 110 c1 84 5 118 18 143 10 17 20 32 22 32 3 0 11 -15 19
-34 18 -44 61 -54 154 -37 66 12 252 79 252 90 0 3 -14 49 -29 101 -16 52 -27
97 -26 98 2 2 61 -14 132 -37 212 -67 254 -75 408 -75 161 -1 182 5 266 73 78
63 126 131 135 188 7 46 4 58 -80 356 -10 36 -7 44 33 123 36 70 41 87 30 100
-22 26 -52 37 -99 35 l-45 -1 75 44 c41 25 85 53 97 63 l22 18 -35 58 c-37 63
-51 135 -40 210 l7 44 82 22 c203 54 216 59 243 101 21 31 27 55 30 107 1 36
-2 75 -7 85 -9 16 -305 436 -408 578 l-30 42 26 47 c15 25 35 58 45 73 14 21
16 32 8 53 -5 14 -10 30 -10 34 0 4 34 8 76 9 71 1 107 5 189 18 121 19 353
109 399 154 34 34 42 29 -104 65 -115 28 -182 56 -258 105 l-49 33 -6 111 c-7
108 -40 269 -70 338 -8 18 -43 105 -77 193 -34 88 -65 169 -70 180 -4 11 -18
47 -31 80 -111 292 -377 619 -629 773 -265 161 -496 249 -780 295 -52 9 -111
19 -130 22 -39 7 -475 16 -481 11z m-762 -1214 c26 -27 104 -93 173 -147 192
-152 240 -212 275 -347 19 -73 14 -249 -10 -337 -28 -109 -108 -207 -187 -230
-86 -26 -181 32 -258 157 -17 29 -33 52 -36 52 -4 0 3 -184 11 -297 3 -39 12
-95 20 -125 7 -29 11 -56 7 -60 -4 -4 -26 -9 -50 -12 -37 -4 -42 -2 -38 12 19
63 22 178 7 302 -6 52 -12 109 -14 125 l-2 30 -24 -45 c-72 -137 -127 -190
-196 -190 -118 0 -237 198 -229 379 7 138 61 272 207 511 133 218 160 265 189
328 l30 62 38 -59 c22 -33 60 -82 87 -109z"/>
</g>
</svg>
